<svg xmlns="http://www.w3.org/2000/svg">
    <symbol id="cursor" viewBox="0 0 50 50">
        <path d="M5.144304,5.157284L19.86746,44.842717l6.399991-12.749165L39.467906,44.842715l5.38779-5.356964L32.108024,26.283449l12.747672-6.356342L5.144304,5.157284Z" fill="none" stroke="currentcolor" stroke-width="2" stroke-linejoin="round"/>
    </symbol>
    <symbol id="text" fill="currentcolor" stroke="currentcolor" stroke-width="0.3" viewBox="3 4 18 14">
        <path d="M17,12 L17,17 L17.5,17 C17.7761424,17 18,17.2238576 18,17.5 C18,17.7761424 17.7761424,18 17.5,18 L15.5,18 C15.2238576,18 15,17.7761424 15,17.5 C15,17.2238576 15.2238576,17 15.5,17 L16,17 L16,12 L14,12 L14,12.5 C14,12.7761424 13.7761424,13 13.5,13 C13.2238576,13 13,12.7761424 13,12.5 L13,11.5 C13,11.2238576 13.2238576,11 13.5,11 L19.5,11 C19.7761424,11 20,11.2238576 20,11.5 L20,12.5 C20,12.7761424 19.7761424,13 19.5,13 C19.2238576,13 19,12.7761424 19,12.5 L19,12 L17,12 Z M10,6 L10,17 L11.5,17 C11.7761424,17 12,17.2238576 12,17.5 C12,17.7761424 11.7761424,18 11.5,18 L7.5,18 C7.22385763,18 7,17.7761424 7,17.5 C7,17.2238576 7.22385763,17 7.5,17 L9,17 L9,6 L5,6 L5,7.5 C5,7.77614237 4.77614237,8 4.5,8 C4.22385763,8 4,7.77614237 4,7.5 L4,5.5 C4,5.22385763 4.22385763,5 4.5,5 L14.5,5 C14.7761424,5 15,5.22385763 15,5.5 L15,7.5 C15,7.77614237 14.7761424,8 14.5,8 C14.2238576,8 14,7.77614237 14,7.5 L14,6 L10,6 Z"></path>
    </symbol>
    <symbol id="inverted" viewBox="0 0 50 50">
        <path d="M25,3.957246c11,0,20.903709,9.042754,20.903709,21.04225s-9.903709,21.04225-20.903709,21.04225L25,36c6,0,11-5,11-11s-5-11-11-11v-10.042754" fill="currentcolor" opacity="0.5"/>
        <path d="M24.8928,36C20,36,14,32,14,25s6-11,10.8928-11v22Z" fill="currentcolor" opacity="0.5"/>
        <ellipse rx="21.010909" ry="21.04225" transform="translate(24.8928 24.999496)" fill="none" stroke="currentcolor" stroke-width="2"/>
        <ellipse rx="11" ry="11" transform="translate(25 25)" fill="none" stroke="currentcolor"/>
    </symbol>
    <symbol id="voice" viewBox="0 0 82.7143562658 73.4398480746" fill="currentColor">
        <path d="M.0000001273,8.7749960449c.001931694,12.9717392828.0017477232,25.9434785656.001609745,38.9152178484l-.0000459927,16.7377607468c0,.6971575706.0514658478,1.3127240651.15738707,1.8817459324.4078633946,2.1921047717,1.4948092229,3.9836129976,3.2306202713,5.3247605605,1.5475628668,1.1956266133,3.4381853931,1.8022705212,5.6192979059,1.8030064047,5.3834012719.001931694,10.7668945291.002575592,16.1500658374.0022996357l16.150295801-.0005519126,16.1973463482.0005519126c5.3990847876,0,10.7980775898-.0004599271,16.1971623774-.0022996357,2.0034426557-.0007358834,3.7595364913-.520361575,5.2197132-1.5444353622,2.5144217168-1.76345267,3.7893397704-4.2808179205,3.7894317559-7.4820948398l.0000919854-14.9522315738c0-13.4571004018,0-26.914154811.0013797814-40.3712092201.0000919854-.9460701429-.1213287816-1.8578297207-.3712531937-2.7872964936-.4899143978-1.8225533084-1.4871284396-3.2948261011-3.0485811062-4.5009850462v-.0000459927c-1.5670637779-1.2106202383-3.4018051557-1.7991890093-5.608167669-1.7991890093h-.0045992715c-10.3872706614.0038173953-20.9482098138.0033574682-31.1609841153.0028515483l-10.5098412463-.000321949-6.4858006523.0002759563c-5.5131007275.0005519126-11.0261094696.0008278689-16.5392561899-.001287796h-.0045992715C6.9444401314.0015177596,5.2525061329.4940997348,3.8087028306,1.5073652341,1.2453448653,3.3062782871-.0004597998,5.6835497285.0000001273,8.7749960449ZM3.2511791421,24.3469794503l-.0002299636-6.7124527508c-.0000459927-3.0070956775-.0000919854-6.0142373477-.002897541-9.0213330252-.0020236795-2.2327163388,1.6233588607-4.3927641883,3.7808311182-5.024428133.5730692261-.1678274162,1.1831625876-.2494184922,1.864866606-.2494184922h.0013797814c23.0685659504.002575592,43.8765899695.0042773225,64.9274555226-.0018857013h.0022996357c2.3179408393,0,4.0224308489,1.0210842608,5.0663734889,3.0351512335.5009526493.9663529302.5630428143,1.9993952968.5661703189,2.6923675303.0095664847,2.0997973931.0076347907,4.2337673733.0058870675,6.2975524708-.0005519126.6797263317-.0011958106,1.3594986561-.0013797814,2.0392709805-.0000919854.3984348881-.0001839709.7747472804-.2969289666,1.0702044801-.2954571997.2942153964-.6716776066.2942153964-1.0699745166.2942153964l-38.4104937965.0003679417c-8.5060766416.0001379781-17.3016774227.0005519126-25.9525851231-.003541439h-.0046912569c-.7259950027,0-1.1926830796.0788775058-1.5769982043.4920300627-.3780601155.4064836132-.5320897172.9331461901-.4225810634,1.4449071274.1098765956.5136466386.4678838874.9329622192.9822664095,1.1504617674.3190514624.1348966324.6592135809.1453369787,1.1049749725.1453829714,16.769817669.0005519126,33.5396813308.0004599271,50.3097289634.0005059199h6.7079454647c.6255929064,0,1.2511858128.000643898,1.8767787192.001287796,1.790864328.0017477232,3.6428989666.0036794172,5.4626467194-.01016439.2980327918-.0033574682.6759089364.0324708566.9690665003.3236507339.2972049229.2952732289.3312395318.6902586634.3309635755.9616616733-.0080947178,9.1964272904-.0089225867,18.5470221607-.0097504555,27.5898337838-.0004599271,4.5196120956-.0008278689,9.0392241913-.0021156649,13.5588362869-.0007358834,2.4445127904-1.0649153179,4.1984909611-3.1630109806,5.2133662053-.6581557485.3181776008-1.380793283.4751967291-2.2123415662.471977239-8.8925074312-.0073588344-17.9340312582-.0068069218-26.6775222935-.0065309655l-6.091919043.0001839709c-2.8273101554,0-5.6546663036-.0011958106-8.4819764591-.0024836066-7.9137824607-.0033114755-16.0968062737-.0068989072-24.1444275344.0177531879h-.0167413482c-2.3789731718.0000919854-4.5050324051-1.5554736137-5.1740424342-3.7876840327-.224950368-.7504171343-.2507062882-1.5113206076-.2505223174-2.0184362807.004507286-13.3207779952.0040013662-26.8646666499.0034954463-39.962609942Z"/>
        <path d="M16.3484325436,49.9689689396c.0178451733,1.8815619615.8281448223,3.253892585,2.4771676179,4.1956394128.694673964.3967331577,1.5240145968.5768406287,2.689194033.5840154922,2.1568743522.0137978144,4.1013083548.0226284157,6.056918587-.0070828781.0465906201-.0007358834.0936411673-.0011038252.1409676708-.0011038252.7063561135,0,1.4876343594.0967686719,2.0980956627.8561083928.0367941718.0457167585.1658957222.1252841551.2601347948.1833269611.0294353375.0181211296.0587326968.0362422592.0875701289.0543633889,1.0066425483.6335956388,2.0142049509,1.2657195106,3.0216753681,1.8978433825,1.6883465667,1.0593042067,3.4341380342,2.1545747164,5.1472286815,3.2393588871,1.2336625884.7812322532,2.5088106056.951865225,3.8982965117.5223852544,1.7043980242-.5270765113,3.0014845663-2.2050747172,3.0169381185-3.9031257468.024836066-2.6995883865.0195009111-5.4466412547.0144417124-8.1032724456-.0021156649-1.1249818034-.0043233152-2.2498716214-.0043233152-3.3748534249v-.706448099h.0064389801c.0017477232-.9312604888.0063469946-1.8670282636.0108542807-2.7779599725.0127859747-2.5881940313.0260318766-5.2649240386-.028055556-7.8912000378-.0332067401-1.6091011192-.8726657702-3.0184098853-2.2455483062-3.7698848521-1.3910956511-.7614093931-3.0536862976-.7076439095-4.4472655553.1440951754-2.0615774471,1.2598784359-4.1400802133,2.5619781839-6.1778794269,3.8701489703-.3064494586.1967108411-.6201197733.3833032849-.9234417273.563732705-.708379793.4213852528-1.3774358148.8194062065-1.952758684,1.3316270709-.4366548341.3889143961-.8892691402.5588114845-1.4759982026.5567878051-2.0013269908-.0131079237-4.0376084448-.0099804191-6.0071544697-.0068989072l-.6711716867.0010118397c-.8936844408.001287796-1.5350528484.116913481-2.0796065913.37474864-1.899545113.8995255156-2.848834746,2.2248515846-2.9020943097,4.0516822155-.0690350649,2.3711084176-.0442909843,4.7917969817-.0203747726,7.1327341784l.0097504555.9822204168ZM32.1175407245,39.0144241342c1.825036915-1.1606721501,3.6782673642-2.3454904754,5.4704654809-3.4913069787.7802664062-.4988829772,1.5605788051-.9977659544,2.3410751748-1.4962809898.1085887996-.0693570139.216395723-.1244102935.3167058339-.1734845201.6062299735-.2972969083,1.0261894521-.1796475439,1.2718825344-.028699454.2433934466.1497522793.5352632146.4669640331.5430819761,1.1276493809.0065309655.5497509197.0052431695,1.1062167758.0039553735,1.6443775314-.0005519126.2232026448-.0011038252.4463592969-.0011038252.6695619417v19.479662431c0,.038541895.0004599271.07708379.0009198543.1156256849.001287796.105139346.0026675775.2243524627-.004507286.3483488217-.0278715852.4889025581-.2588469988.881404386-.6337796096,1.0765054821-.1591347931.082878872-.332665306.1239043736-.511484981.1239043736-.2410018254,0-.4916161282-.0746001834-.7299963689-.2220528269-1.4072850867-.870918047-2.8347609752-1.7607850925-4.2152323093-2.6212168005l-.9555906349-.5956056564c-.28428097-.1770719519-.5677800639-.3555236852-.8512791578-.5338834331-.5893046544-.370885252-1.1987081252-.7543725078-1.8023165139-1.1174389982-.5914203193-.3557076561-.881082437-.8614435478-.8854517449-1.5462750708-.0231803282-3.6505337572-.0471885254-7.4254318152-.1896739557-11.1736540986-.0263998183-.6941220514.2458770532-1.2128278887.8323301593-1.5857368201ZM19.6227918866,42.3252557001c.001287796-1.0219581223.6331357116-1.6606129597,1.6490227956-1.6666839981.8793347138-.0052431695,1.7724672421-.0049672132,2.6358424838-.0049672132,1.0010314371.0004599271,2.0363734394.0004599271,3.0530423996-.0079107469.3309175828-.0018397086.5960655835.0941930799.7910746942.2880063799.2936174911.291869768.2927436296.6748051112.2923296951.8588679557-.0023916212,1.1015255189-.0019776867,2.2032350086-.0015637523,3.3050364838l.000321949.9728379029c.0000459927.3867067458-.0007818762.7733215063-.001609745,1.1600282521-.0021616576,1.004756847-.0043693079,2.0437322738.0097504555,3.062654877.0033114755.2387021897-.0237322408.5876949094-.2955491852.8608916352-.280739531.2821193124-.6544303386.3000564712-.831732254.3000564712-.0143957197,0-.027411658-.0000919854-.0390478148-.0001839709-1.1896015677-.0105783244-2.4009116968-.0099344264-3.5726680911-.0090145721-.657419865.0003679417-1.3147937373.0007358834-1.9719836388-.000643898-1.1077805281-.002575592-1.7180578605-.6185100283-1.7185637803-1.7343852742-.0011038252-2.4825947582-.0018397086-4.9155173844.0013337887-7.3845902845Z"/>
        <path d="M58.0264787613,33.039602543c.0980564679.0914795097.1958369795.1829130267.2904899865.2766921721,2.800128461,2.7762122493,4.5371813127,6.1424190438,5.1629581899,10.005163187.3826593869,2.3621858309.2597668531,4.7653971634-.3653661262,7.1429445611-.6144626694,2.3366138815-1.6649362749,4.5015829515-3.1220774644,6.4347487389-.5463014661.724661214-1.1721703288,1.36515576-1.7774344552,1.9845856426-.2132222257.2180974535-.4336193149.4436457267-.6444499194.6669863497-.5894426326.6240291541-.5871429968,1.6037659643.0050591986,2.1840100539.7415865331.7266848935,1.6291539428.7575000124,2.316377087.0804872509.9815765188-.9667668646,1.7903124154-1.7805619599,2.5181931194-2.7144900261,2.9317596107-3.7615601707,4.4619372313-8.1190939395,4.5481275788-12.951548481.0166493627-2.3601621515-.3633424467-4.6892332277-1.1296730603-6.9150046666-1.1001457375-3.1955278299-2.9070155302-6.022424051-5.370477319-8.4021790989v-.0000459927l-.1208688544-.1173734081c-.4018843417-.3918119372-.7490373528-.7301803398-1.2215665045-.834307846-.1464408038-.0322408931-.2855227733-.0486602922-.4183497336-.0486602922-.471333341,0-.8653069358.2058633913-1.2410674155.6386088447-.2318952679.2669877093-.5026083871.7271908133-.1778998208,1.6385824493.1242723153.3485327926.4133825204.6183720502.7480255131.9308005616Z"/>
        <path d="M42.0607517247,11.1333644805c-.0022076503.3141762346.1677814235.665008663.4663661278.9625355348.3333551967.3322053788.7751612148.5373328867,1.1557969223.5373328867.0037714026,0,.0074508198,0,.011130237-.0000459927,3.415786941-.036288252,6.8868571252-.0305851553,10.2440493476-.0250200368,1.2621320789.0020696722,2.5237122452.0021156649,3.7863042512.0041393443,1.3604645031.0002759563,2.720469079.000321949,4.0807496112.000643898,3.3047605275.0008278689,6.7218352646.0017477232,10.0823389624-.0034494536.4851311555-.0007358834.9446903615-.2736566529,1.2292932805-.7299963689.2921457243-.4684817927.3350109344-1.0177267926.1146138452-1.4692372735-.3523041952-.7219476438-.88655557-1.0303747891-1.7852532168-1.0303747891h-.0061630238c-6.9828899136.0110382515-14.0825093374.0099344264-20.9482098138.008876594-2.1781229864-.0003679417-4.3566139145-.0007818762-6.5342769737-.000643898l-.0746001834-.0001839709c-.0747841542-.0003679417-.1496602939-.0007818762-.2242604772.0024376139-.9191184121.0397377056-1.5911639604.7727695937-1.5978788968,1.7429859119Z"/>
        <path d="M50.7289066932,37.2962282956c2.1702122394,1.9672923818,3.4404390361,4.1662960607,3.8830729231,6.7227551189.4293879852,2.479559239.117557379,4.8386175653-.927029159,7.0114973822-.6684581166,1.3905437385-1.6276821759,2.6157896602-2.9323115233,3.7456466914-.3543278746.3067714076-.546485437.6412304294-.5876949094,1.0225100349-.0759799648.7035965506.2735646675,1.4659717908.7956739656,1.7353971139.5680100275.2932495494,1.3823570353.1587668514,1.9363852775-.3195573823.4333433586-.3742887129.839643001-.7611794295,1.2074927337-1.1498178694,2.5041193487-2.6457769102,3.8728625405-5.9468580206,3.9587769317-9.5474436896-.0378060115-1.9790665168-.2385182188-3.4158789264-.6703898106-4.8017314081-.7543725078-2.4209645204-2.0918406535-4.5482655569-3.9755182798-6.3228024712-.0626420775-.0589626603-.1247322425-.119167124-.1870063783-.1795555585-.2872704965-.2784398953-.5586275137-.5414722311-.85656832-.6406325241-.16382605-.054501367-.3376785119-.0802572873-.5127267843-.0802572873-.598733161,0-1.2123679615.3011143036-1.4934754342.7818301585-.3873506438.6623870782-.2421056506,1.4750783483.3613187673,2.0221616906Z"/>
        <path d="M8.9943814217,11.0686987235c.0070368854,1.1136675956.8376193215,1.9214376452,1.9752491215,1.9214376452h.0160514575l.0137518217.0011038252c.47165529.0393237711.9637773381-.1463948111,1.3507600403-.5090013744.4153142144-.3890523743.6482673148-.912035534.6391607572-1.4348347229-.0198228601-1.1401134066-.9043087579-2.0309462991-2.0147568635-2.0309462991h-.0067609291c-.5437258741.0017477232-1.0409071208.202367945-1.3999262524.5648825229-.3735068367.3770942685-.5772085704.9053205977-.5735291533,1.4873584032Z"/>
        <path d="M18.9861607287,12.5115821715c.3824754161.3460031933.8620414531.521005473,1.3157595843.4799799714l.0286074686-.002575592.0286534613.0023916212c.4528442697.0387258658.9308465544-.1381161225,1.3114362691-.4833834323.4147163091-.3761744142.6566839816-.9024690493.6639508305-1.4439872731.0074508198-.5565118488-.1950091107-1.0733779775-.5700337069-1.4553934664-.37152915-.3784740499-.8773570271-.5884307928-1.4243483839-.5912363485-.0036334245-.0000459927-.0073588344-.0000459927-.0109922588-.0000459927-.5490150363,0-1.061511857.2114285098-1.4443092221.5960655835-.3773702247.379255926-.5822677691.8825542038-.5768866214,1.4171735204.0055651185.5563278779.2527759604,1.0961443713.6781625794,1.4810114085Z"/>
        <path d="M28.3076882033,12.4803531181c.3913980027.3673898056.8762991946.5534303369,1.3321329908.5112550175l.0154995449-.0014717669.015637523.0000459927h.0042773225c1.1758037533.0000919854,1.9702819083-.7871193207,1.9777787208-1.9600715256.003541439-.5537982786-.1940432636-1.0631675948-.5563278779-1.4342828103-.3612727746-.3700573831-.8602937299-.5756448181-1.4051694218-.5789103009-.0042313298-.0000459927-.0086006377-.0000459927-.0128319674-.0000459927-1.1173930055,0-1.9839417446.868020506-2.0181143317,2.0244153336-.014993625.5067477314.2269280547,1.0447245161.6471174969,1.4390660526Z"/>
    </symbol>
    <symbol id="greyscale" viewBox="0 0 50 50">
        <title>grayscale</title>
        <path d="M32,3.896774C44,5,45.915329,3.999134,46,25s-2,20-14,21v-42.103226Z" fill="currentcolor" opacity="0.6" stroke-width="0.5"/>
        <path d="M18,5v2h2v-2h2v2h2v-2h2v2h2v-2h2v2h2v2h-2v-2h-2v2h-2v-2h-2v2h-2v-2h-2v2h-2v2h2v-2h2v2h2v-2h2v2h2v-2h2v2h2v2h-2v-2h-2v2h-2v-2h-2v2h-2v-2h-2v2h-2v2h2v-2h2v2h2v-2h2v2h2v-2h2v2h2v2h-2v-2h-2v2h-2v-2h-2v2h-2v-2h-2v2h-2v2h2v-2h2v2h2v-2h2v2h2v-2h2v2h2v2h-2v-2h-2v2h-2v-2h-2v2h-2v-2h-2v2h-2v2h2v-2h2v2h2v-2h2v2h2v-2h2v2h2v2l-2-.051613L30,23h-2v2h-2v-2h-2v2h-2v-2h-2v1.948387h-2L18,27h2v-2h2v2h2v-2h2v2h2v-2h2v2h2v2h-2v-2h-2v2h-2v-2h-2v2h-2v-2h-2v2h-2v2h2v-2h2v2h2v-2h2v2h2v-2h2v2h2v2h-2v-2h-2v2h-2v-2h-2v2h-2v-2h-2v2h-2v2h2v-2h2v2h2v-2h2v2h2v-2h2v2h2v2h-2v-2h-2v2h-2v-2h-2v2h-2v-2h-2v2h-2v2h2v-2h2v2h2v-2h2v2h2v-2h2v2h2v2h-2v-2h-2v2h-2v-2h-2v2h-2v-2h-2v2h-2v2h2v-2h2v2h2v-2h2v2h2v-2h2v2h2v2h-2v-2h-2v2h-2v-2h-2v2h-2v-2h-2v2h12v-40h-14Z" fill="currentcolor" opacity="0.5" stroke-width="0.5"/>
        <path d="M25,3.896774c21,0,21,0,21,21.103226s0,21-21,21-21,.103226-21-21s0-21.103226,21-21.103226Z" fill="none" stroke="currentcolor" stroke-width="2"/>
    </symbol>
    <symbol id="line" viewBox="0 0 50 50">
        <path d="M0.896717,0.830358C1.896717,-0.169642,3.853283,0,4.875,0s29.021717,0,30.00014,0s3.021577-.169642,4.021577.830358.999999,2.882633,1,3.941317c0,.794373,0,29.058683,0,30.062487s.100452,2.895744-1,3.996196-3,1.378819-4.000144,1.378819-29.248801,0-30.031308,0c-1.031452.000001-2.882402-.292673-3.968548-1.378819s-.896717-2.992396-.896717-3.996198s0-29.268113,0-30.062485c0-1.058683-.103283-2.941317.896717-3.941317Z" transform="translate(5.103283 5.169642)" fill="none" stroke="currentcolor" stroke-width="2" stroke-linejoin="round"/>
        <path d="M10,12c1.28125-.339318,3.71875-.387761,4.875,0c1.300263.317959,3.832051.410096,5.125,0c1.21875-.297692,3.625-.307916,4.8125,0c1.375.279298,3.96875.326718,5.1875,0c1.28125-.29299,3.78125-.312671,5,0c1.3125.226609,3.8125.258096,5,0" fill="none" stroke="currentcolor"/>
        <path d="M10,12c1.28125-.339318,3.71875-.387761,4.875,0c1.300263.317959,3.832051.410096,5.125,0c1.21875-.297692,3.625-.307916,4.8125,0c1.375.279298,3.96875.326718,5.1875,0c1.28125-.29299,3.78125-.312671,5,0c1.3125.226609,3.8125.258096,5,0" transform="translate(0 8)" fill="none" stroke="currentcolor"/>
        <path d="M10,12c1.28125-.339318,3.71875-.387761,4.875,0c1.300263.317959,3.832051.410096,5.125,0c1.21875-.297692,3.625-.307916,4.8125,0c1.375.279298,3.96875.326718,5.1875,0c1.28125-.29299,3.78125-.312671,5,0c1.3125.226609,3.8125.258096,5,0" transform="translate(0 16)" fill="none" stroke="currentcolor"/>
        <rect width="48" height="2" rx="0" ry="0" transform="translate(1 15)" stroke="currentcolor" stroke-linejoin="round"/>
    </symbol>
    <symbol id="mask" viewBox="0 0 50 50">
        <rect width="39.908442" height="9" rx="0" ry="0" transform="translate(5.091558 6)" fill="currentcolor" opacity="0.3" stroke-width="0" stroke-linejoin="bevel"/>
        <path d="M0,0h39.908442c0,0,1,15.730934-1,18.730934s-37,2-38,0C-0.091558,16.730934,0,0,0,0Z" transform="translate(5.091558 25.269066)" fill="currentcolor" opacity="0.3" stroke-width="0" stroke-linejoin="round"/>
        <path d="M0.896717,0.830358C1.896717,-0.169642,3.853283,0,4.875,0s29.021717,0,30.00014,0s3.021577-.169642,4.021577.830358.999999,2.882633,1,3.941317c0,.794373,0,29.058683,0,30.062487s.100452,2.895744-1,3.996196-3,1.378819-4.000144,1.378819-29.248801,0-30.031308,0c-1.031452.000001-2.882402-.292673-3.968548-1.378819s-.896717-2.992396-.896717-3.996198s0-29.268113,0-30.062485c0-1.058683-.103283-2.941317.896717-3.941317Z" transform="translate(5.103283 5.169642)" fill="none" stroke="currentcolor" stroke-width="2" stroke-linejoin="round"/>
        <path d="M10,12c1.28125-.339318,3.71875-.387761,4.875,0c1.300263.317959,3.832051.410096,5.125,0c1.21875-.297692,3.625-.307916,4.8125,0c1.375.279298,3.96875.326718,5.1875,0c1.28125-.29299,3.78125-.312671,5,0c1.3125.226609,3.8125.258096,5,0" fill="none" stroke="currentcolor"/>
        <path d="M10,12c1.28125-.339318,3.71875-.387761,4.875,0c1.300263.317959,3.832051.410096,5.125,0c1.21875-.297692,3.625-.307916,4.8125,0c1.375.279298,3.96875.326718,5.1875,0c1.28125-.29299,3.78125-.312671,5,0c1.3125.226609,3.8125.258096,5,0" transform="translate(0 8)" fill="none" stroke="currentcolor"/>
        <path d="M10,12c1.28125-.339318,3.71875-.387761,4.875,0c1.300263.317959,3.832051.410096,5.125,0c1.21875-.297692,3.625-.307916,4.8125,0c1.375.279298,3.96875.326718,5.1875,0c1.28125-.29299,3.78125-.312671,5,0c1.3125.226609,3.8125.258096,5,0" transform="translate(0 16)" fill="none" stroke="currentcolor"/>
        <rect width="48" height="10.269066" rx="0" ry="0" transform="translate(1 15)" fill="none" stroke="currentcolor" stroke-width="1.5" stroke-linejoin="round"/>
    </symbol>
    <symbol id="links" viewBox="0 0 50 50">
        <path d="M15,33c-5-.000002-10.000007.99998-10-8.000011s5-7.99999,10-7.99999s15-.000001,20-.000001s10-1,10,8.00604-5,7.99396-10,7.99396-15,.000004-20,.000002Z" fill="currentcolor" opacity="0.3" stroke-width="0.5"/>
        <path d="M21,30l-2,3c0,0,1,0-4,0s-10,1-10-8s5-8,10-8s4,0,4,0l2,3" fill="none" stroke="currentcolor" stroke-width="2" stroke-linecap="round" stroke-linejoin="round"/>
        <path d="M29,20l2-3c0,0-1,0,4,0s10-1,10,8-5,8.032845-10,8-4,0-4,0l-2-3" fill="none" stroke="currentcolor" stroke-width="2" stroke-linecap="round" stroke-linejoin="round"/>
        <path d="M15,24.999988l20,.006051" fill="none" stroke="currentcolor" stroke-width="2"/>
        <path d="M15,7l5,5" fill="none" stroke="currentcolor" stroke-width="2" stroke-linejoin="round"/>
        <path d="M25,4v6" fill="none" stroke="currentcolor" stroke-width="2" stroke-linejoin="round"/>
        <path d="M30,12l5-5" fill="none" stroke="currentcolor" stroke-width="2" stroke-linejoin="round"/>
        <path d="M20,38l-5,5" fill="none" stroke="currentcolor" stroke-width="2"/>
        <path d="M25,40v6" fill="none" stroke="currentcolor" stroke-width="2"/>
        <path d="M30,38l5,5" fill="none" stroke="currentcolor" stroke-width="2"/>
    </symbol>
    <symbol id="lineheight" viewBox="0 0 50 50">
        <line x1="-9.588326" y1="0" x2="9.588327" y2="0" transform="translate(34.588327 25)" fill="none" stroke="currentcolor" stroke-width="3" stroke-linecap="round"/>
        <line x1="-9.588326" y1="0" x2="9.588327" y2="0" transform="translate(34.588327 36)" fill="none" stroke="currentcolor" stroke-width="3" stroke-linecap="round"/>
        <line x1="-9.588327" y1="0" x2="9.588327" y2="0" transform="translate(34.588327 14)" fill="none" stroke="currentcolor" stroke-width="3" stroke-linecap="round"/>

        <path d="M11,21v-13" fill="none" stroke="currentcolor" stroke-width="3" stroke-linecap="round"/>
        <path d="M6,14l5-6l5,6" fill="none" stroke="currentcolor" stroke-width="3" stroke-linecap="round" stroke-linejoin="round"/>

        <path d="M11,42v-13" fill="none" stroke="currentcolor" stroke-width="3" stroke-linecap="round"/>
        <path d="M6,36l5,6l5-6" fill="none" stroke="currentcolor" stroke-width="3" stroke-linecap="round" stroke-linejoin="round"/>
    </symbol>
    <symbol id="letterSpacing" viewBox="0 0 50 50">
        <g>
            <path d="M11,43L7,38l4-5" fill="none" stroke="currentcolor" stroke-width="3" stroke-linecap="round" stroke-linejoin="round"/>
            <path d="M39,43l4-5-4-5" fill="none" stroke="currentcolor" stroke-width="3" stroke-linecap="round" stroke-linejoin="round"/>
            <path d="M7,38h36" fill="none" stroke="currentcolor" stroke-width="3" stroke-linecap="round" stroke-linejoin="round"/>
        </g>
        <path d="M25,30v-22" fill="none" stroke="currentcolor" stroke-width="3"/>
        <path d="M16,13v-5h18v5" fill="none" stroke="currentcolor" stroke-width="3" stroke-linecap="round" stroke-linejoin="round"/>
    </symbol>
    <symbol id="stopAnimation" viewBox="0 0 50 50">
        <g>
            <path d="M22,20v10" fill="none" stroke="currentcolor" stroke-width="3" stroke-linecap="round"/>
            <path d="M28,20v10" fill="none" stroke="currentcolor" stroke-width="3" stroke-linecap="round"/>
        </g>
        <path d="M25,10l-.000064-6" fill="none" stroke="currentcolor" stroke-width="4"/>
        <path d="M10,25.000064L4,25" fill="none" stroke="currentcolor" stroke-width="4"/>
        <path d="M40,25l6.097472.000064" fill="none" stroke="currentcolor" stroke-width="4"/>
        <path d="M24.999936,40L25,46.0976" fill="none" stroke="currentcolor" stroke-width="4"/>
        <path d="M12.123347,17.535336L6.724093,14.440137" transform="translate(0 0.000001)" fill="none" stroke="currentcolor" stroke-width="4"/>
        <path d="M17.578759,12.103773L14.455661,6.747136" transform="translate(0 0.000001)" fill="none" stroke="currentcolor" stroke-width="4"/>
        <path d="M32.47484,12.098246l3.1-5.3" fill="none" stroke="currentcolor" stroke-width="4"/>
        <path d="M38.035092,17.546243l5.16-3.1" fill="none" stroke="currentcolor" stroke-width="4"/>
        <path d="M37.92065,32.479006l5.26,3.06" fill="none" stroke="currentcolor" stroke-width="4"/>
        <path d="M32.503833,37.934018l3.02,5.3" fill="none" stroke="currentcolor" stroke-width="4"/>
        <path d="M17.446694,37.947099l-3.058472,5.237109" fill="none" stroke="currentcolor" stroke-width="4"/>
        <path d="M12.005173,32.468834l-5.24,3.08" fill="none" stroke="currentcolor" stroke-width="4"/>
    </symbol>
    <symbol id="noimage" viewBox="0 0 50 50">
        <path d="M8,42v-13l9-8.665804L21,23l9,9l5-5l7,8v6l-2,1h-32Z" fill="currentcolor" opacity="0.3" stroke="0" stroke-width="0"/>
        <path d="M9,42h31q2,0,2-2t0-31" fill="none" stroke="currentcolor" stroke-width="2" stroke-linecap="square" stroke-linejoin="round"/>
        <path d="M8,33v-23q0-2,2-2t24,0" fill="none" stroke="currentcolor" stroke-width="2"/>
        <path d="M5,45L45,5" fill="none" stroke="currentcolor" stroke-width="2"/>
        <path d="M8,29l8-8q1-1,2-.5t3,2.5" fill="none" stroke="currentcolor" stroke-width="2"/>
        <path d="M24,26l5,5q1,1,2,0t3-3q1-1,2,0t6,6" fill="none" stroke="currentcolor" stroke-width="2"/>
    </symbol>
    <symbol id="dyslexia" viewBox="0 0 50 50">
        <path d="M25,5h16q4,0,4,4t0,31q0,5-4,5t-32,0q-4,0-4-4t0-31Q5,5,9,5t16,0Z" fill="currentcolor" opacity="0.25" stroke="0" stroke-width="0"/>
        <path d="M25,5h16q4,0,4,4t0,31q0,5-4,5t-32,0q-4,0-4-4t0-31Q5,5,9,5t16,0Z" fill="none" stroke="currentcolor" stroke-width="2"/>
        <path d="M34,25c0,17-18,13-18,13v-26c0,0,18-4,18,13Z" fill="none" stroke="currentColor" stroke-width="5" opacity="0.9" stroke-linejoin="round"/>
    </symbol>
    <symbol id="headers" viewBox="0 0 50 50">
        <path d="M25,5h16q4,0,4,4t0,31q0,5-4,5t-32,0q-4,0-4-4t0-31Q5,5,9,5t16,0Z" fill="currentcolor" opacity="0.25" stroke="0" stroke-width="0"/>
        <path d="M25,5h16q4,0,4,4t0,31q0,5-4,5t-32,0q-4,0-4-4t0-31Q5,5,9,5t16,0Z" fill="none" stroke="currentcolor" stroke-width="2"/>
        <g>
            <path d="M16,38v-26" fill="none" stroke="currentcolor" stroke-width="5" stroke-linecap="round"/>
            <path d="M34,38v-26" fill="none" stroke="currentcolor" stroke-width="5" stroke-linecap="round"/>
            <path d="M16,25l18,.000001" transform="translate(0 0.000001)" fill="none" stroke="currentcolor" stroke-width="5" opacity="0.9" stroke-linecap="round"/>
        </g>
    </symbol>
    <symbol id="mute" viewBox="0 0 50 50">
        <path d="M8,10L40,42" fill="none" stroke="currentcolor" stroke-width="3" stroke-linecap="round"/>
        <path d="M18,14l6-6c2-1,3.008102-.337682,3,2v13l-2-2v-11l-5.598649,5.478417L18,14Z" stroke="currentcolor" fill="currentcolor" stroke-width="0.8"/>
        <path d="M31,17c5.125237,2.864311,6,10,3,13" fill="none" stroke="currentcolor" stroke-width="3"/>
        <path d="M33.35154,9C43.160328,13.020598,47.509696,28,40,36" fill="none" stroke="currentcolor" stroke-width="3"/>
        <path d="M34,40c.503115-.177942,1.503115-.67674,2-1" fill="none" stroke="currentcolor" stroke-width="3"/>
        <path d="M26,28v13L15,31h-9v-12h9l1-1L26,28Z" fill="none" stroke="currentcolor" stroke-width="3" stroke-linejoin="round"/>
        <path d="M6,19v12h9L27.000034,41v-32L24,8L13,19h-7" fill="currentcolor" opacity="0.25" stroke-width="0"/>
    </symbol>

</svg>