<svg xmlns="http://www.w3.org/2000/svg"><symbol id="cursor" viewBox="0 0 50 50"><path fill="none" stroke="currentcolor" stroke-linejoin="round" stroke-width="2" d="m5.144 5.157 14.723 39.686 6.4-12.75 13.2 12.75 5.389-5.357-12.748-13.203 12.748-6.356z"/></symbol><symbol id="text" fill="currentcolor" stroke="currentcolor" stroke-width=".3" viewBox="3 4 18 14"><path d="M17 12v5h.5a.5.5 0 1 1 0 1h-2a.5.5 0 1 1 0-1h.5v-5h-2v.5a.5.5 0 1 1-1 0v-1a.5.5 0 0 1 .5-.5h6a.5.5 0 0 1 .5.5v1a.5.5 0 1 1-1 0V12zm-7-6v11h1.5a.5.5 0 1 1 0 1h-4a.5.5 0 1 1 0-1H9V6H5v1.5a.5.5 0 0 1-1 0v-2a.5.5 0 0 1 .5-.5h10a.5.5 0 0 1 .5.5v2a.5.5 0 1 1-1 0V6z"/></symbol><symbol id="inverted" viewBox="0 0 50 50"><path fill="currentcolor" d="M25 3.957C36 3.957 45.904 13 45.904 25S36 46.042 25 46.042V36c6 0 11-5 11-11s-5-11-11-11zM24.893 36C20 36 14 32 14 25s6-11 10.893-11z" opacity=".5"/><ellipse fill="none" stroke="currentcolor" stroke-width="2" rx="21.011" ry="21.042" transform="translate(24.893 25)"/><circle r="11" fill="none" stroke="currentcolor" transform="translate(25 25)"/></symbol><symbol id="voice" fill="currentColor" viewBox="0 0 82.714 73.44"><path d="M0 8.775Q.003 28.233.002 47.69v16.738c0 .697.051 1.313.157 1.882.408 2.192 1.495 3.983 3.23 5.324 1.548 1.196 3.439 1.803 5.62 1.803q8.075.003 16.15.003h32.348q8.099 0 16.197-.003c2.003 0 3.76-.52 5.22-1.544 2.514-1.763 3.789-4.28 3.789-7.482V49.459l.001-40.371c0-.947-.121-1.858-.37-2.788-.49-1.822-1.488-3.295-3.05-4.5C77.728.588 75.894 0 73.687 0h-.004C63.294.004 52.734.003 42.52.003H25.525L8.985.002h-.004c-2.037 0-3.728.492-5.172 1.505C1.245 3.307-.001 5.684 0 8.775m3.251 15.572v-6.712q0-4.512-.003-9.022C3.246 6.38 4.871 4.22 7.028 3.59a6.6 6.6 0 0 1 1.866-.25h.001c23.069.003 43.877.005 64.928-.002h.002c2.318 0 4.022 1.022 5.066 3.036.501.966.563 1.999.566 2.692.01 2.1.008 4.234.006 6.298l-.001 2.039c0 .398 0 .775-.297 1.07-.295.294-.672.294-1.07.294h-38.41c-8.507 0-17.302.001-25.953-.003h-.005c-.726 0-1.192.079-1.577.492-.378.407-.532.933-.422 1.445.11.514.468.933.982 1.15.319.135.66.146 1.105.146h57.018l1.876.002c1.791.001 3.643.003 5.463-.01.298-.004.676.032.97.323.296.295.33.69.33.962-.008 9.196-.009 18.547-.01 27.59q0 6.78-.002 13.558c0 2.445-1.065 4.199-3.163 5.214-.658.318-1.38.475-2.212.472-8.893-.008-17.934-.007-26.678-.007h-6.092q-4.24 0-8.482-.002c-7.913-.003-16.096-.007-24.144.018h-.017c-2.379 0-4.505-1.556-5.174-3.788-.225-.75-.25-1.511-.25-2.018.004-13.321.004-26.865.003-39.963"/><path d="M16.348 49.969c.018 1.882.829 3.254 2.478 4.196.694.396 1.524.576 2.689.584a279 279 0 0 0 6.198-.009c.706 0 1.487.097 2.098.857.037.045.166.125.26.183l.087.054q1.511.95 3.022 1.898c1.689 1.06 3.434 2.155 5.147 3.24 1.234.78 2.51.951 3.899.522 1.704-.527 3.001-2.205 3.017-3.903.024-2.7.02-5.447.014-8.104q-.004-1.688-.004-3.374v-.707h.006c.002-.931.007-1.867.011-2.778.013-2.588.026-5.265-.028-7.891-.033-1.61-.873-3.018-2.246-3.77-1.39-.761-3.053-.708-4.447.144a331 331 0 0 0-6.178 3.87c-.306.197-.62.384-.923.564-.709.421-1.378.82-1.953 1.332a2.06 2.06 0 0 1-1.476.556c-2.001-.013-4.038-.01-6.007-.006h-.671c-.894.002-1.535.117-2.08.375-1.9.9-2.849 2.225-2.902 4.052-.069 2.371-.044 4.792-.02 7.133zm15.77-10.955c1.825-1.16 3.678-2.345 5.47-3.49q1.17-.75 2.341-1.497c.109-.07.216-.125.317-.174.606-.297 1.026-.18 1.272-.028.243.15.535.467.543 1.127.006.55.005 1.107.004 1.645l-.001.67v19.595c.002.105.003.224-.004.348-.028.489-.259.881-.634 1.076a1.1 1.1 0 0 1-.511.124c-.241 0-.492-.074-.73-.222-1.408-.87-2.835-1.76-4.215-2.621l-.956-.596-.851-.533c-.59-.371-1.2-.755-1.803-1.118-.591-.356-.88-.861-.885-1.546-.023-3.65-.047-7.426-.19-11.174-.026-.694.246-1.213.833-1.586m-12.495 3.311c.001-1.022.633-1.66 1.649-1.666.88-.006 1.772-.005 2.636-.005 1 0 2.036 0 3.053-.008.33-.002.596.094.79.288.294.292.294.675.293.859q-.003 1.652-.001 3.305v.972q0 .58-.002 1.16c-.002 1.005-.004 2.044.01 3.063.003.239-.024.588-.296.861-.28.282-.654.3-.831.3h-.04c-1.189-.01-2.4-.01-3.572-.01q-.986.002-1.972 0c-1.108-.002-1.718-.618-1.719-1.734 0-2.483-.001-4.916.002-7.385M58.026 33.04q.148.136.291.276c2.8 2.777 4.537 6.143 5.163 10.005.383 2.363.26 4.766-.365 7.143a18.4 18.4 0 0 1-3.123 6.435c-.546.725-1.172 1.365-1.777 1.985-.213.218-.434.443-.644.667-.59.624-.588 1.603.005 2.184.741.726 1.629.757 2.316.08.982-.967 1.79-1.78 2.518-2.714 2.932-3.762 4.462-8.12 4.548-12.952.017-2.36-.363-4.69-1.13-6.915-1.1-3.195-2.906-6.022-5.37-8.402l-.12-.117c-.403-.392-.75-.73-1.222-.835a2 2 0 0 0-.419-.048c-.47 0-.865.205-1.24.638-.233.267-.503.727-.179 1.639.125.348.414.618.748.93M42.06 11.133c-.001.315.169.665.467.963.333.332.775.537 1.156.537h.011c3.416-.036 6.887-.03 10.244-.025l3.786.004 4.081.001c3.305 0 6.722.002 10.082-.003.486-.001.945-.274 1.23-.73.292-.469.335-1.018.114-1.47-.352-.722-.886-1.03-1.785-1.03h-.006c-6.983.01-14.083.01-20.948.009h-6.535l-.074-.001q-.113 0-.224.002c-.92.04-1.592.773-1.598 1.743"/><path d="M50.729 37.296c2.17 1.968 3.44 4.167 3.883 6.723.43 2.48.118 4.839-.927 7.011-.669 1.391-1.628 2.616-2.932 3.746-.355.307-.547.641-.588 1.023-.076.703.274 1.466.796 1.735.568.293 1.382.159 1.936-.32.433-.374.84-.76 1.207-1.15 2.505-2.645 3.873-5.946 3.96-9.547-.039-1.979-.24-3.416-.671-4.802-.754-2.42-2.092-4.548-3.976-6.322l-.187-.18c-.287-.278-.558-.541-.856-.64a1.6 1.6 0 0 0-.513-.08c-.599 0-1.212.3-1.493.781-.388.662-.243 1.475.36 2.022M8.994 11.069c.007 1.113.838 1.921 1.976 1.921h.016l.013.001c.472.04.964-.146 1.351-.509.416-.389.648-.912.64-1.435-.02-1.14-.905-2.03-2.015-2.03h-.007a1.96 1.96 0 0 0-1.4.564c-.374.377-.577.906-.574 1.488M18.986 12.512c.383.346.862.52 1.316.48l.029-.003.028.002c.453.04.931-.138 1.312-.483.414-.376.656-.902.664-1.444a2.02 2.02 0 0 0-.57-1.455 2 2 0 0 0-1.425-.592h-.01a2.02 2.02 0 0 0-1.445.596c-.377.38-.582.883-.577 1.418.006.556.253 1.096.678 1.48M28.308 12.48c.391.368.876.554 1.332.512l.015-.002h.02c1.176 0 1.97-.787 1.978-1.96a2.01 2.01 0 0 0-.556-1.434 1.96 1.96 0 0 0-1.405-.58h-.013c-1.118 0-1.984.869-2.018 2.025-.015.507.226 1.045.647 1.44"/></symbol><symbol id="greyscale" viewBox="0 0 50 50"><title>grayscale</title><path fill="currentcolor" stroke-width=".5" d="M32 3.897C44 5 45.915 3.999 46 25s-2 20-14 21z" opacity=".6"/><path fill="currentcolor" stroke-width=".5" d="M18 5v2h2V5h2v2h2V5h2v2h2V5h2v2h2v2h-2V7h-2v2h-2V7h-2v2h-2V7h-2v2h-2v2h2V9h2v2h2V9h2v2h2V9h2v2h2v2h-2v-2h-2v2h-2v-2h-2v2h-2v-2h-2v2h-2v2h2v-2h2v2h2v-2h2v2h2v-2h2v2h2v2h-2v-2h-2v2h-2v-2h-2v2h-2v-2h-2v2h-2v2h2v-2h2v2h2v-2h2v2h2v-2h2v2h2v2h-2v-2h-2v2h-2v-2h-2v2h-2v-2h-2v2h-2v2h2v-2h2v2h2v-2h2v2h2v-2h2v2h2v2l-2-.052V23h-2v2h-2v-2h-2v2h-2v-2h-2v1.948h-2V27h2v-2h2v2h2v-2h2v2h2v-2h2v2h2v2h-2v-2h-2v2h-2v-2h-2v2h-2v-2h-2v2h-2v2h2v-2h2v2h2v-2h2v2h2v-2h2v2h2v2h-2v-2h-2v2h-2v-2h-2v2h-2v-2h-2v2h-2v2h2v-2h2v2h2v-2h2v2h2v-2h2v2h2v2h-2v-2h-2v2h-2v-2h-2v2h-2v-2h-2v2h-2v2h2v-2h2v2h2v-2h2v2h2v-2h2v2h2v2h-2v-2h-2v2h-2v-2h-2v2h-2v-2h-2v2h-2v2h2v-2h2v2h2v-2h2v2h2v-2h2v2h2v2h-2v-2h-2v2h-2v-2h-2v2h-2v-2h-2v2h12V5z" opacity=".5"/><path fill="none" stroke="currentcolor" stroke-width="2" d="M25 3.897c21 0 21 0 21 21.103s0 21-21 21-21 .103-21-21S4 3.897 25 3.897Z"/></symbol><symbol id="line" viewBox="0 0 50 50"><path fill="none" stroke="currentcolor" stroke-linejoin="round" stroke-width="2" d="M6 6c1-1 2.957-.83 3.978-.83h30C40.956 5.17 43 5 44 6s1 2.883 1 3.941v30.063c0 1.004.1 2.896-1 3.996s-3 1.379-4 1.379H9.969C8.937 45.379 7.086 45.086 6 44s-.897-2.992-.897-3.996V9.94C5.103 8.883 5 7 6 6Z"/><path fill="none" stroke="currentcolor" d="M10 12c1.281-.34 3.719-.388 4.875 0 1.3.318 3.832.41 5.125 0 1.219-.298 3.625-.308 4.813 0 1.375.28 3.968.327 5.187 0 1.281-.293 3.781-.313 5 0 1.313.227 3.813.258 5 0M10 20c1.281-.34 3.719-.388 4.875 0 1.3.318 3.832.41 5.125 0 1.219-.298 3.625-.308 4.813 0 1.375.28 3.968.327 5.187 0 1.281-.293 3.781-.313 5 0 1.313.227 3.813.258 5 0M10 28c1.281-.34 3.719-.388 4.875 0 1.3.318 3.832.41 5.125 0 1.219-.298 3.625-.308 4.813 0 1.375.28 3.968.327 5.187 0 1.281-.293 3.781-.313 5 0 1.313.227 3.813.258 5 0"/><rect width="48" height="2" stroke="currentcolor" stroke-linejoin="round" rx="0" ry="0" transform="translate(1 15)"/></symbol><symbol id="mask" viewBox="0 0 50 50"><rect width="39.908" height="9" fill="currentcolor" stroke-linejoin="bevel" stroke-width="0" opacity=".3" rx="0" ry="0" transform="translate(5.092 6)"/><path fill="currentcolor" stroke-linejoin="round" stroke-width="0" d="M5.092 25.27H45S46 41 44 44 7 46 6 44s-.908-18.73-.908-18.73" opacity=".3"/><path fill="none" stroke="currentcolor" stroke-linejoin="round" stroke-width="2" d="M6 6c1-1 2.957-.83 3.978-.83h30C40.956 5.17 43 5 44 6s1 2.883 1 3.941v30.063c0 1.004.1 2.896-1 3.996s-3 1.379-4 1.379H9.969C8.937 45.379 7.086 45.086 6 44s-.897-2.992-.897-3.996V9.94C5.103 8.883 5 7 6 6Z"/><path fill="none" stroke="currentcolor" d="M10 12c1.281-.34 3.719-.388 4.875 0 1.3.318 3.832.41 5.125 0 1.219-.298 3.625-.308 4.813 0 1.375.28 3.968.327 5.187 0 1.281-.293 3.781-.313 5 0 1.313.227 3.813.258 5 0M10 20c1.281-.34 3.719-.388 4.875 0 1.3.318 3.832.41 5.125 0 1.219-.298 3.625-.308 4.813 0 1.375.28 3.968.327 5.187 0 1.281-.293 3.781-.313 5 0 1.313.227 3.813.258 5 0M10 28c1.281-.34 3.719-.388 4.875 0 1.3.318 3.832.41 5.125 0 1.219-.298 3.625-.308 4.813 0 1.375.28 3.968.327 5.187 0 1.281-.293 3.781-.313 5 0 1.313.227 3.813.258 5 0"/><rect width="48" height="10.269" fill="none" stroke="currentcolor" stroke-linejoin="round" stroke-width="1.5" rx="0" ry="0" transform="translate(1 15)"/></symbol><symbol id="links" viewBox="0 0 50 50"><path fill="currentcolor" stroke-width=".5" d="M15 33c-5 0-10 1-10-8s5-8 10-8h20c5 0 10-1 10 8.006S40 33 35 33z" opacity=".3"/><path fill="none" stroke="currentcolor" stroke-linecap="round" stroke-linejoin="round" stroke-width="2" d="m21 30-2 3h-4c-5 0-10 1-10-8s5-8 10-8h4l2 3M29 20l2-3h4c5 0 10-1 10 8s-5 8.033-10 8-4 0-4 0l-2-3"/><path fill="none" stroke="currentcolor" stroke-width="2" d="m15 25 20 .006"/><path fill="none" stroke="currentcolor" stroke-linejoin="round" stroke-width="2" d="m15 7 5 5M25 4v6M30 12l5-5"/><path fill="none" stroke="currentcolor" stroke-width="2" d="m20 38-5 5M25 40v6M30 38l5 5"/></symbol><symbol id="lineheight" viewBox="0 0 50 50"><g fill="none" stroke="currentcolor" stroke-linecap="round" stroke-width="3"><path d="M25 25h19.176M25 36h19.176M25 14h19.176"/></g><g fill="none" stroke="currentcolor" stroke-linecap="round" stroke-width="3"><path d="M11 21V8"/><path stroke-linejoin="round" d="m6 14 5-6 5 6"/></g><g fill="none" stroke="currentcolor" stroke-linecap="round" stroke-width="3"><path d="M11 42V29"/><path stroke-linejoin="round" d="m6 36 5 6 5-6"/></g></symbol><symbol id="letterSpacing" viewBox="0 0 50 50"><g fill="none" stroke="currentcolor" stroke-linecap="round" stroke-linejoin="round" stroke-width="3"><path d="m11 43-4-5 4-5M39 43l4-5-4-5M7 38h36"/></g><path fill="none" stroke="currentcolor" stroke-width="3" d="M25 30V8"/><path fill="none" stroke="currentcolor" stroke-linecap="round" stroke-linejoin="round" stroke-width="3" d="M16 13V8h18v5"/></symbol><symbol id="stopAnimation" viewBox="0 0 50 50"><g fill="none" stroke="currentcolor" stroke-linecap="round" stroke-width="3"><path d="M22 20v10M28 20v10"/></g><path fill="none" stroke="currentcolor" stroke-width="4" d="M25 10V4M10 25H4M40 25h6.097M25 40v6.098M12.123 17.535 6.724 14.44M17.579 12.104l-3.123-5.357M32.475 12.098l3.1-5.3M38.035 17.546l5.16-3.1M37.92 32.479l5.26 3.06M32.504 37.934l3.02 5.3M17.447 37.947l-3.059 5.237M12.005 32.469l-5.24 3.08"/></symbol><symbol id="noimage" viewBox="0 0 50 50"><path fill="currentcolor" stroke="0" stroke-width="0" d="M8 42V29l9-8.666L21 23l9 9 5-5 7 8v6l-2 1z" opacity=".3"/><path fill="none" stroke="currentcolor" stroke-linecap="square" stroke-linejoin="round" stroke-width="2" d="M9 42h31q2 0 2-2t0-31"/><path fill="none" stroke="currentcolor" stroke-width="2" d="M8 33V10q0-2 2-2t24 0M5 45 45 5"/><path fill="none" stroke="currentcolor" stroke-width="2" d="m8 29 8-8q1-1 2-.5t3 2.5M24 26l5 5q1 1 2 0t3-3q1-1 2 0t6 6"/></symbol><symbol id="dyslexia" viewBox="0 0 50 50"><path fill="currentcolor" stroke="0" stroke-width="0" d="M25 5h16q4 0 4 4t0 31q0 5-4 5T9 45q-4 0-4-4t0-31q0-5 4-5t16 0Z" opacity=".25"/><path fill="none" stroke="currentcolor" stroke-width="2" d="M25 5h16q4 0 4 4t0 31q0 5-4 5T9 45q-4 0-4-4t0-31q0-5 4-5t16 0Z"/><path fill="none" stroke="currentColor" stroke-linejoin="round" stroke-width="5" d="M34 25c0 17-18 13-18 13V12s18-4 18 13Z" opacity=".9"/></symbol><symbol id="headers" viewBox="0 0 50 50"><path fill="currentcolor" stroke="0" stroke-width="0" d="M25 5h16q4 0 4 4t0 31q0 5-4 5T9 45q-4 0-4-4t0-31q0-5 4-5t16 0Z" opacity=".25"/><path fill="none" stroke="currentcolor" stroke-width="2" d="M25 5h16q4 0 4 4t0 31q0 5-4 5T9 45q-4 0-4-4t0-31q0-5 4-5t16 0Z"/><g fill="none" stroke="currentcolor" stroke-linecap="round" stroke-width="5"><path d="M16 38V12M34 38V12"/><path d="M16 25h18" opacity=".9"/></g></symbol><symbol id="mute" viewBox="0 0 50 50"><path fill="none" stroke="currentcolor" stroke-linecap="round" stroke-width="3" d="m8 10 32 32"/><path fill="currentcolor" stroke="currentcolor" stroke-width=".8" d="m18 14 6-6c2-1 3.008-.338 3 2v13l-2-2V10l-5.599 5.478z"/><path fill="none" stroke="currentcolor" stroke-width="3" d="M31 17c5.125 2.864 6 10 3 13M33.352 9C43.16 13.02 47.51 28 40 36M34 40c.503-.178 1.503-.677 2-1"/><path fill="none" stroke="currentcolor" stroke-linejoin="round" stroke-width="3" d="M26 28v13L15 31H6V19h9l1-1z"/><path fill="currentcolor" stroke-width="0" d="M6 19v12h9l12 10V9l-3-1-11 11z" opacity=".25"/></symbol></svg>